<mxfile host="app.diagrams.net" agent="Mozilla/5.0 (Windows NT 10.0; Win64; x64) AppleWebKit/537.36 (KHTML, like Gecko) Chrome/132.0.0.0 Safari/537.36" version="26.0.11">
  <diagram id="yvi8D_Mabd3kGTDyu403" name="Page-1">
    <mxGraphModel dx="989" dy="509" grid="1" gridSize="10" guides="1" tooltips="1" connect="1" arrows="1" fold="1" page="1" pageScale="1" pageWidth="850" pageHeight="1100" math="0" shadow="0">
      <root>
        <mxCell id="0" />
        <mxCell id="1" parent="0" />
        <mxCell id="Vncvu1EEu2WYUHLNXOCo-1" value="OrderInfoService&lt;div&gt;(API Composer)&lt;/div&gt;" style="html=1;whiteSpace=wrap;" parent="1" vertex="1">
          <mxGeometry x="200" y="40" width="110" height="50" as="geometry" />
        </mxCell>
        <mxCell id="Vncvu1EEu2WYUHLNXOCo-2" value="InventoryService" style="html=1;whiteSpace=wrap;" parent="1" vertex="1">
          <mxGeometry x="400" y="120" width="110" height="50" as="geometry" />
        </mxCell>
        <mxCell id="Vncvu1EEu2WYUHLNXOCo-4" value="" style="ellipse;whiteSpace=wrap;html=1;aspect=fixed;" parent="1" vertex="1">
          <mxGeometry x="350" y="130" width="20" height="20" as="geometry" />
        </mxCell>
        <mxCell id="Vncvu1EEu2WYUHLNXOCo-5" value="" style="endArrow=none;html=1;rounded=0;" parent="1" edge="1">
          <mxGeometry width="50" height="50" relative="1" as="geometry">
            <mxPoint x="370" y="140" as="sourcePoint" />
            <mxPoint x="400" y="140" as="targetPoint" />
          </mxGeometry>
        </mxCell>
        <mxCell id="Vncvu1EEu2WYUHLNXOCo-7" value="BookService" style="html=1;whiteSpace=wrap;" parent="1" vertex="1">
          <mxGeometry x="400" y="200" width="110" height="50" as="geometry" />
        </mxCell>
        <mxCell id="Vncvu1EEu2WYUHLNXOCo-8" value="" style="ellipse;whiteSpace=wrap;html=1;aspect=fixed;" parent="1" vertex="1">
          <mxGeometry x="350" y="210" width="20" height="20" as="geometry" />
        </mxCell>
        <mxCell id="Vncvu1EEu2WYUHLNXOCo-9" value="" style="endArrow=none;html=1;rounded=0;" parent="1" edge="1">
          <mxGeometry width="50" height="50" relative="1" as="geometry">
            <mxPoint x="370" y="220" as="sourcePoint" />
            <mxPoint x="400" y="220" as="targetPoint" />
          </mxGeometry>
        </mxCell>
        <mxCell id="Vncvu1EEu2WYUHLNXOCo-10" value="OrderService" style="html=1;whiteSpace=wrap;" parent="1" vertex="1">
          <mxGeometry x="400" y="345" width="110" height="50" as="geometry" />
        </mxCell>
        <mxCell id="Vncvu1EEu2WYUHLNXOCo-11" value="" style="ellipse;whiteSpace=wrap;html=1;aspect=fixed;" parent="1" vertex="1">
          <mxGeometry x="350" y="355" width="20" height="20" as="geometry" />
        </mxCell>
        <mxCell id="Vncvu1EEu2WYUHLNXOCo-12" value="" style="endArrow=none;html=1;rounded=0;" parent="1" edge="1">
          <mxGeometry width="50" height="50" relative="1" as="geometry">
            <mxPoint x="370" y="364" as="sourcePoint" />
            <mxPoint x="400" y="364" as="targetPoint" />
          </mxGeometry>
        </mxCell>
        <mxCell id="Vncvu1EEu2WYUHLNXOCo-13" value="" style="shape=cylinder3;whiteSpace=wrap;html=1;boundedLbl=1;backgroundOutline=1;size=15;" parent="1" vertex="1">
          <mxGeometry x="590" y="120" width="40" height="50" as="geometry" />
        </mxCell>
        <mxCell id="Vncvu1EEu2WYUHLNXOCo-16" value="" style="shape=cylinder3;whiteSpace=wrap;html=1;boundedLbl=1;backgroundOutline=1;size=15;" parent="1" vertex="1">
          <mxGeometry x="590" y="200" width="40" height="50" as="geometry" />
        </mxCell>
        <mxCell id="Vncvu1EEu2WYUHLNXOCo-17" value="" style="shape=cylinder3;whiteSpace=wrap;html=1;boundedLbl=1;backgroundOutline=1;size=15;" parent="1" vertex="1">
          <mxGeometry x="590" y="345" width="40" height="50" as="geometry" />
        </mxCell>
        <mxCell id="Vncvu1EEu2WYUHLNXOCo-20" value="" style="endArrow=none;html=1;rounded=0;" parent="1" edge="1">
          <mxGeometry width="50" height="50" relative="1" as="geometry">
            <mxPoint x="169" y="65" as="sourcePoint" />
            <mxPoint x="199" y="65" as="targetPoint" />
          </mxGeometry>
        </mxCell>
        <mxCell id="Vncvu1EEu2WYUHLNXOCo-21" value="" style="ellipse;whiteSpace=wrap;html=1;aspect=fixed;" parent="1" vertex="1">
          <mxGeometry x="149" y="55" width="20" height="20" as="geometry" />
        </mxCell>
        <mxCell id="Vncvu1EEu2WYUHLNXOCo-22" value="" style="endArrow=classic;html=1;rounded=0;entryX=0;entryY=0.5;entryDx=0;entryDy=0;exitX=0.471;exitY=1.023;exitDx=0;exitDy=0;exitPerimeter=0;" parent="1" source="Vncvu1EEu2WYUHLNXOCo-1" target="Vncvu1EEu2WYUHLNXOCo-4" edge="1">
          <mxGeometry width="50" height="50" relative="1" as="geometry">
            <mxPoint x="320" y="240" as="sourcePoint" />
            <mxPoint x="370" y="190" as="targetPoint" />
          </mxGeometry>
        </mxCell>
        <mxCell id="Vncvu1EEu2WYUHLNXOCo-23" value="" style="endArrow=classic;html=1;rounded=0;entryX=0;entryY=0.5;entryDx=0;entryDy=0;" parent="1" target="Vncvu1EEu2WYUHLNXOCo-8" edge="1">
          <mxGeometry width="50" height="50" relative="1" as="geometry">
            <mxPoint x="250" y="90" as="sourcePoint" />
            <mxPoint x="360" y="203" as="targetPoint" />
          </mxGeometry>
        </mxCell>
        <mxCell id="Vncvu1EEu2WYUHLNXOCo-24" value="" style="endArrow=classic;html=1;rounded=0;entryX=0;entryY=0.5;entryDx=0;entryDy=0;" parent="1" target="Vncvu1EEu2WYUHLNXOCo-11" edge="1">
          <mxGeometry width="50" height="50" relative="1" as="geometry">
            <mxPoint x="250" y="90" as="sourcePoint" />
            <mxPoint x="326" y="230" as="targetPoint" />
          </mxGeometry>
        </mxCell>
        <mxCell id="Vncvu1EEu2WYUHLNXOCo-28" value="Client A" style="rounded=0;whiteSpace=wrap;html=1;" parent="1" vertex="1">
          <mxGeometry x="40" y="160" width="50" height="20" as="geometry" />
        </mxCell>
        <mxCell id="Vncvu1EEu2WYUHLNXOCo-31" value="" style="endArrow=classic;html=1;rounded=0;entryX=0;entryY=1;entryDx=0;entryDy=0;exitX=1;exitY=0.5;exitDx=0;exitDy=0;" parent="1" source="Vncvu1EEu2WYUHLNXOCo-28" target="Vncvu1EEu2WYUHLNXOCo-21" edge="1">
          <mxGeometry width="50" height="50" relative="1" as="geometry">
            <mxPoint x="100" y="130" as="sourcePoint" />
            <mxPoint x="232" y="190" as="targetPoint" />
          </mxGeometry>
        </mxCell>
        <mxCell id="Vncvu1EEu2WYUHLNXOCo-37" value="" style="endArrow=classic;html=1;rounded=0;entryX=0;entryY=0.5;entryDx=0;entryDy=0;entryPerimeter=0;exitX=1;exitY=0.5;exitDx=0;exitDy=0;" parent="1" source="Vncvu1EEu2WYUHLNXOCo-2" target="Vncvu1EEu2WYUHLNXOCo-13" edge="1">
          <mxGeometry width="50" height="50" relative="1" as="geometry">
            <mxPoint x="320" y="240" as="sourcePoint" />
            <mxPoint x="370" y="190" as="targetPoint" />
          </mxGeometry>
        </mxCell>
        <mxCell id="Vncvu1EEu2WYUHLNXOCo-38" value="" style="endArrow=classic;html=1;rounded=0;entryX=0;entryY=0.5;entryDx=0;entryDy=0;entryPerimeter=0;exitX=1;exitY=0.5;exitDx=0;exitDy=0;" parent="1" edge="1">
          <mxGeometry width="50" height="50" relative="1" as="geometry">
            <mxPoint x="511" y="228" as="sourcePoint" />
            <mxPoint x="591" y="228" as="targetPoint" />
          </mxGeometry>
        </mxCell>
        <mxCell id="Vncvu1EEu2WYUHLNXOCo-39" value="" style="endArrow=classic;html=1;rounded=0;entryX=0;entryY=0.5;entryDx=0;entryDy=0;entryPerimeter=0;exitX=1;exitY=0.5;exitDx=0;exitDy=0;" parent="1" edge="1">
          <mxGeometry width="50" height="50" relative="1" as="geometry">
            <mxPoint x="511" y="370" as="sourcePoint" />
            <mxPoint x="591" y="370" as="targetPoint" />
          </mxGeometry>
        </mxCell>
        <mxCell id="DdxhRb-vfWMBbabbjlfw-1" value="ReviewService" style="html=1;whiteSpace=wrap;" vertex="1" parent="1">
          <mxGeometry x="402" y="272" width="110" height="50" as="geometry" />
        </mxCell>
        <mxCell id="DdxhRb-vfWMBbabbjlfw-2" value="" style="ellipse;whiteSpace=wrap;html=1;aspect=fixed;" vertex="1" parent="1">
          <mxGeometry x="352" y="282" width="20" height="20" as="geometry" />
        </mxCell>
        <mxCell id="DdxhRb-vfWMBbabbjlfw-3" value="" style="endArrow=none;html=1;rounded=0;" edge="1" parent="1">
          <mxGeometry width="50" height="50" relative="1" as="geometry">
            <mxPoint x="372" y="292" as="sourcePoint" />
            <mxPoint x="402" y="292" as="targetPoint" />
          </mxGeometry>
        </mxCell>
        <mxCell id="DdxhRb-vfWMBbabbjlfw-4" value="" style="shape=cylinder3;whiteSpace=wrap;html=1;boundedLbl=1;backgroundOutline=1;size=15;" vertex="1" parent="1">
          <mxGeometry x="592" y="272" width="40" height="50" as="geometry" />
        </mxCell>
        <mxCell id="DdxhRb-vfWMBbabbjlfw-5" value="" style="endArrow=classic;html=1;rounded=0;entryX=0;entryY=0.5;entryDx=0;entryDy=0;entryPerimeter=0;exitX=1;exitY=0.5;exitDx=0;exitDy=0;" edge="1" parent="1">
          <mxGeometry width="50" height="50" relative="1" as="geometry">
            <mxPoint x="513" y="300" as="sourcePoint" />
            <mxPoint x="593" y="300" as="targetPoint" />
          </mxGeometry>
        </mxCell>
        <mxCell id="DdxhRb-vfWMBbabbjlfw-7" value="" style="endArrow=none;html=1;rounded=0;" edge="1" parent="1">
          <mxGeometry width="50" height="50" relative="1" as="geometry">
            <mxPoint x="410" y="270" as="sourcePoint" />
            <mxPoint x="410" y="260" as="targetPoint" />
          </mxGeometry>
        </mxCell>
        <mxCell id="DdxhRb-vfWMBbabbjlfw-8" value="" style="endArrow=none;html=1;rounded=0;" edge="1" parent="1">
          <mxGeometry width="50" height="50" relative="1" as="geometry">
            <mxPoint x="410" y="260" as="sourcePoint" />
            <mxPoint x="519" y="260" as="targetPoint" />
          </mxGeometry>
        </mxCell>
        <mxCell id="DdxhRb-vfWMBbabbjlfw-9" value="" style="endArrow=none;html=1;rounded=0;" edge="1" parent="1">
          <mxGeometry width="50" height="50" relative="1" as="geometry">
            <mxPoint x="519" y="310" as="sourcePoint" />
            <mxPoint x="519" y="260" as="targetPoint" />
          </mxGeometry>
        </mxCell>
        <mxCell id="DdxhRb-vfWMBbabbjlfw-10" value="" style="endArrow=none;html=1;rounded=0;" edge="1" parent="1">
          <mxGeometry width="50" height="50" relative="1" as="geometry">
            <mxPoint x="512" y="310" as="sourcePoint" />
            <mxPoint x="519" y="310" as="targetPoint" />
          </mxGeometry>
        </mxCell>
        <mxCell id="DdxhRb-vfWMBbabbjlfw-11" value="Service Discovery Server / Service Registry" style="rounded=0;whiteSpace=wrap;html=1;" vertex="1" parent="1">
          <mxGeometry x="130" y="230" width="120" height="60" as="geometry" />
        </mxCell>
        <mxCell id="DdxhRb-vfWMBbabbjlfw-12" value="" style="endArrow=classic;html=1;rounded=0;entryX=0.393;entryY=-0.029;entryDx=0;entryDy=0;entryPerimeter=0;" edge="1" parent="1" target="DdxhRb-vfWMBbabbjlfw-11">
          <mxGeometry width="50" height="50" relative="1" as="geometry">
            <mxPoint x="250" y="90" as="sourcePoint" />
            <mxPoint x="400" y="220" as="targetPoint" />
          </mxGeometry>
        </mxCell>
        <mxCell id="DdxhRb-vfWMBbabbjlfw-13" value="" style="endArrow=classic;html=1;rounded=0;exitX=0;exitY=0.5;exitDx=0;exitDy=0;entryX=0.583;entryY=0;entryDx=0;entryDy=0;entryPerimeter=0;" edge="1" parent="1" source="Vncvu1EEu2WYUHLNXOCo-2" target="DdxhRb-vfWMBbabbjlfw-11">
          <mxGeometry width="50" height="50" relative="1" as="geometry">
            <mxPoint x="350" y="270" as="sourcePoint" />
            <mxPoint x="400" y="220" as="targetPoint" />
          </mxGeometry>
        </mxCell>
        <mxCell id="DdxhRb-vfWMBbabbjlfw-14" value="" style="endArrow=classic;html=1;rounded=0;entryX=0.98;entryY=0.419;entryDx=0;entryDy=0;entryPerimeter=0;" edge="1" parent="1" target="DdxhRb-vfWMBbabbjlfw-11">
          <mxGeometry width="50" height="50" relative="1" as="geometry">
            <mxPoint x="400" y="280" as="sourcePoint" />
            <mxPoint x="260" y="260" as="targetPoint" />
          </mxGeometry>
        </mxCell>
        <mxCell id="DdxhRb-vfWMBbabbjlfw-16" value="" style="endArrow=classic;html=1;rounded=0;exitX=0;exitY=0.25;exitDx=0;exitDy=0;entryX=0.681;entryY=1.028;entryDx=0;entryDy=0;entryPerimeter=0;" edge="1" parent="1" source="Vncvu1EEu2WYUHLNXOCo-10" target="DdxhRb-vfWMBbabbjlfw-11">
          <mxGeometry width="50" height="50" relative="1" as="geometry">
            <mxPoint x="350" y="270" as="sourcePoint" />
            <mxPoint x="400" y="220" as="targetPoint" />
          </mxGeometry>
        </mxCell>
        <mxCell id="DdxhRb-vfWMBbabbjlfw-17" value="" style="endArrow=classic;html=1;rounded=0;entryX=1;entryY=0.25;entryDx=0;entryDy=0;exitX=0;exitY=0.6;exitDx=0;exitDy=0;exitPerimeter=0;" edge="1" parent="1" source="Vncvu1EEu2WYUHLNXOCo-7" target="DdxhRb-vfWMBbabbjlfw-11">
          <mxGeometry width="50" height="50" relative="1" as="geometry">
            <mxPoint x="350" y="270" as="sourcePoint" />
            <mxPoint x="400" y="220" as="targetPoint" />
          </mxGeometry>
        </mxCell>
        <mxCell id="DdxhRb-vfWMBbabbjlfw-19" value="" style="endArrow=classic;html=1;rounded=0;exitX=-0.013;exitY=0.648;exitDx=0;exitDy=0;exitPerimeter=0;" edge="1" parent="1" source="Vncvu1EEu2WYUHLNXOCo-7" target="DdxhRb-vfWMBbabbjlfw-2">
          <mxGeometry width="50" height="50" relative="1" as="geometry">
            <mxPoint x="350" y="230" as="sourcePoint" />
            <mxPoint x="400" y="180" as="targetPoint" />
          </mxGeometry>
        </mxCell>
      </root>
    </mxGraphModel>
  </diagram>
</mxfile>
